<?xml version="1.0" encoding="utf-8"?>
<!-- Generator: Adobe Illustrator 24.3.0, SVG Export Plug-In . SVG Version: 6.00 Build 0)  -->
<svg version="1.1" id="Layer_1" xmlns="http://www.w3.org/2000/svg" xmlns:xlink="http://www.w3.org/1999/xlink" x="0px" y="0px"
	 viewBox="0 0 141.73 141.73" style="enable-background:new 0 0 141.73 141.73;" xml:space="preserve">
<g>
	<g>
		<path d="M71.49,117.72c-6.42-0.06-12.21-0.85-17.82-2.66c-1.52-0.49-2.65-0.29-4,0.53c-4.95,3.03-9.9,6.08-15.02,8.81
			c-3.91,2.09-8.21,3.17-12.7,3.16c-2.76-0.01-4.82-1.5-5.2-3.88c-0.12-0.78,0.02-1.78,0.43-2.43c1.66-2.55,3.53-4.96,5.22-7.48
			c2-2.99,3.73-6.13,4.58-9.67c0.67-2.81,0.21-5.23-1.72-7.6c-7.43-9.13-11.34-19.61-11.08-31.44c0.33-14.52,6.29-26.55,17.06-36.12
			c11.9-10.58,26.05-15.34,41.84-14.71c17.58,0.69,32.5,7.46,43.6,21.35c16.13,20.19,14.08,47.95-4.59,65.81
			c-9.58,9.17-21.06,14.33-34.2,15.87c-0.59,0.07-1.17,0.17-1.76,0.21C74.42,117.58,72.69,117.66,71.49,117.72z M22.36,122.58
			c2.91,0,6.72-0.86,10.63-2.99c5.74-3.12,11.31-6.55,16.98-9.79c0.53-0.31,1.39-0.42,1.96-0.23c8.35,2.81,16.88,3.85,25.64,2.77
			c12.96-1.59,24.15-6.83,33.03-16.49c9.02-9.81,13.17-21.44,11.69-34.77c-1.37-12.24-7.26-22.17-16.74-29.88
			c-11.22-9.13-24.22-12.88-38.59-11.95c-12.32,0.79-23.22,5.16-32.5,13.36c-18.58,16.42-20.55,42.81-4.63,61.82
			c1.95,2.33,2.6,5.05,2.41,8.01c-0.29,4.59-2.32,8.55-4.68,12.35C25.93,117.39,24.15,119.91,22.36,122.58z"/>
		<path d="M88.07,63.47c0-1.64-0.02-3.09,0-4.53c0.03-1.79,1.04-2.95,2.52-2.95c1.45,0.01,2.37,1.1,2.4,2.87
			c0.03,1.41,0.03,2.82,0.05,4.22c0,0.08,0.07,0.16,0.19,0.39c1.18,0,2.44,0,3.7,0c2.73,0,5.45-0.01,8.18,0.01
			c1.63,0.01,2.71,0.99,2.74,2.41c0.03,1.41-1.07,2.44-2.66,2.51c-2.8,0.11-2.8,0.11-3.73,2.71c-1.9,5.29-4.81,9.95-8.85,14.2
			c1.52,1.05,2.96,2.11,4.47,3.06c1.26,0.8,2.6,1.49,3.92,2.19c1.69,0.9,2.31,2.25,1.61,3.63c-0.7,1.37-2.17,1.76-3.88,0.76
			c-3.33-1.93-6.58-3.99-9.99-6.08c-1.39,0.91-2.98,2.13-4.73,3.05c-2.49,1.3-5.07,2.41-7.66,3.5c-1.37,0.58-2.77-0.11-3.24-1.39
			c-0.49-1.36,0.19-2.72,1.68-3.23c3.77-1.26,7.24-3.07,10.38-5.44c-1.77-2.22-3.5-4.36-5.2-6.53c-0.42-0.53-0.78-1.12-1.11-1.71
			c-0.8-1.41-0.5-2.85,0.7-3.58c1.23-0.74,2.55-0.31,3.51,1c1.86,2.56,3.79,5.07,5.8,7.76c4.06-4.09,6.69-8.59,8.38-13.91
			c-0.64,0-1.12,0-1.6,0c-6.59,0-13.17-0.01-19.76,0.01c-1.09,0-2.11-0.29-2.46-1.32c-0.25-0.73-0.31-1.86,0.1-2.39
			c0.49-0.64,1.55-1.14,2.38-1.17c3.49-0.13,6.99-0.05,10.49-0.05C86.88,63.47,87.37,63.47,88.07,63.47z"/>
		<path d="M49.93,65.93c-1.64,0-3.27,0.05-4.91-0.02c-0.82-0.03-1.2,0.24-1.45,1.02c-0.78,2.42-1.64,4.81-2.47,7.21
			c-0.56,1.61-1.83,2.34-3.26,1.85c-1.36-0.47-1.91-1.87-1.35-3.49c3.62-10.46,7.25-20.91,10.86-31.37c0.43-1.25,1.01-2.3,2.47-2.33
			c1.53-0.02,2.16,1.04,2.61,2.34c3.58,10.42,7.2,20.84,10.8,31.26c0.6,1.72,0.06,3.15-1.35,3.59c-1.48,0.47-2.67-0.28-3.28-2.02
			c-0.81-2.36-1.66-4.7-2.44-7.08c-0.23-0.71-0.54-1.02-1.33-0.98C53.21,65.98,51.57,65.93,49.93,65.93z M45.69,60.89
			c2.88,0,5.56,0,8.4,0c-1.39-4.02-2.72-7.87-4.06-11.72c-0.09,0-0.19,0.01-0.28,0.01C48.4,53.04,47.06,56.92,45.69,60.89z"/>
	</g>
</g>
</svg>
