<?xml version="1.0" encoding="utf-8"?>
<!-- Generator: Adobe Illustrator 24.3.0, SVG Export Plug-In . SVG Version: 6.00 Build 0)  -->
<svg version="1.1" id="Layer_1" xmlns="http://www.w3.org/2000/svg" xmlns:xlink="http://www.w3.org/1999/xlink" x="0px" y="0px"
	 viewBox="0 0 113.39 113.39" style="enable-background:new 0 0 113.39 113.39;" xml:space="preserve">
<style type="text/css">
	.st0{fill:#FFFFFF;}
	.st1{fill:#00000;}
</style>
<g>
	<rect x="14.64" y="15.64" class="st0" width="84.3" height="84.3"/>
	<g>
		<path class="st1" d="M2.93,104.44c0-31.68,0-63.35,0-95.03c0.53-0.46,0.52-1.18,0.83-1.76c1.23-2.24,3.2-3.43,5.55-4.15
			c31.44,0,62.88,0,94.32,0c0.13,0.07,0.26,0.17,0.4,0.2c3.86,1.06,6.06,3.84,6.07,7.81c0.01,30.27,0.01,60.54,0.01,90.82
			c0,1.4-0.26,2.73-0.94,3.97c-1.21,2.21-3.21,3.35-5.53,4.05c-31.52,0-63.04,0-94.56,0c-0.3-0.37-0.77-0.34-1.15-0.5
			c-2.1-0.85-3.6-2.32-4.5-4.4C3.28,105.11,3.33,104.66,2.93,104.44z M59.96,50.57c0-2.21-0.04-4.09,0.02-5.96
			c0.03-0.87-0.2-1.15-1.11-1.14c-4.37,0.05-8.74,0.05-13.12,0c-0.87-0.01-1.14,0.2-1.14,1.11c0.03,16.31,0.03,32.61,0,48.92
			c0,0.95,0.35,1.08,1.16,1.07c4.53-0.03,9.06-0.04,13.59,0.01c0.97,0.01,1.25-0.23,1.24-1.23c-0.04-7.76-0.02-15.52-0.03-23.28
			c0-2.49,0.07-4.97,0.73-7.38c0.88-3.25,2.79-5.54,6.24-6.18c5.36-1,9.41,0.76,10.39,6.81c0.27,1.68,0.37,3.37,0.38,5.06
			c0.01,8.31,0.02,16.62-0.01,24.93c0,0.94,0.17,1.28,1.2,1.27c4.53-0.06,9.06-0.05,13.59,0c0.93,0.01,1.17-0.24,1.17-1.17
			c-0.04-9.22-0.02-18.43-0.02-27.65c0-3.11-0.16-6.22-0.78-9.28c-0.87-4.31-2.46-8.22-6.14-10.95c-2.78-2.06-6-2.86-9.38-3.16
			c-5.51-0.5-10.58,0.54-14.83,4.34C61.93,47.75,61.03,49.02,59.96,50.57z M34.78,69.03c0-8.11-0.01-16.22,0.02-24.34
			c0-0.87-0.15-1.23-1.15-1.22c-4.61,0.06-9.21,0.04-13.82,0.01c-0.81-0.01-1.07,0.2-1.07,1.04c0.02,16.34,0.03,32.68,0,49.03
			c0,0.86,0.28,1.03,1.07,1.02c4.57-0.03,9.14-0.06,13.7,0.01c1.1,0.02,1.27-0.36,1.26-1.34C34.76,85.17,34.78,77.1,34.78,69.03z
			 M17.56,27.38c-0.01,5.17,4.02,9.2,9.19,9.21c5.15,0,9.25-4.06,9.26-9.17c0.01-5.09-4.13-9.23-9.22-9.23
			C21.64,18.18,17.57,22.24,17.56,27.38z"/>
	</g>
</g>
</svg>
